<svg version="1.1" id="Layer_1" xmlns="http://www.w3.org/2000/svg" xmlns:xlink="http://www.w3.org/1999/xlink" x="0px" y="0px"
	 width="100%" viewBox="0 0 512 512" enable-background="new 0 0 512 512" xml:space="preserve">
<path fill="#000000" opacity="1.000000" stroke="none" 
	d="
M338.000000,513.000000 
	C225.360703,513.000000 113.221397,513.000000 1.041047,513.000000 
	C1.041047,342.402344 1.041047,171.804672 1.041047,1.103501 
	C171.555969,1.103501 342.112030,1.103501 512.834045,1.103501 
	C512.834045,171.666534 512.834045,342.333252 512.834045,513.000000 
	C454.804657,513.000000 396.652313,513.000000 338.000000,513.000000 
M362.154175,327.692108 
	C372.436310,335.072540 382.718445,342.452972 393.430573,349.990936 
	C393.430573,349.990936 393.885590,350.042542 394.154175,350.692108 
	C404.436310,358.072540 414.718445,365.452972 425.430573,372.990936 
	C425.430573,372.990936 425.885590,373.042542 426.154938,373.693024 
	C431.183746,376.898712 435.226990,382.022797 442.644104,381.988678 
	C443.082642,382.031525 443.521210,382.074402 444.385956,382.864746 
	C448.758118,382.573914 453.263611,382.859436 457.477478,381.884369 
	C470.270721,378.924225 480.211609,367.041321 480.988159,354.074036 
	C480.992126,289.258728 480.996155,224.443420 480.999359,159.628113 
	C480.999420,158.461807 481.232697,157.232498 480.948914,156.138474 
	C474.752045,132.246902 447.640656,124.029518 430.260376,137.213837 
	C426.268921,140.241699 422.120819,143.062561 418.057526,145.996307 
	C404.164825,156.027054 390.300903,166.097794 376.379395,176.088348 
	C368.845978,181.494598 361.218109,186.769196 353.000031,192.548172 
	C353.000031,190.788589 353.026886,189.833466 352.995880,188.880219 
	C352.668427,178.814743 353.857574,168.408218 351.697235,158.751480 
	C346.293884,134.598160 326.101715,118.185669 301.509674,118.093254 
	C231.029953,117.828362 160.548386,118.087685 90.068100,117.916313 
	C77.891617,117.886711 66.654152,120.022560 56.400013,126.922829 
	C42.149986,136.512024 33.352905,149.792419 33.203331,166.807526 
	C32.679012,226.453247 32.985210,286.106415 33.042526,345.756714 
	C33.045475,348.824219 33.344337,351.967285 34.049843,354.946289 
	C39.758106,379.049072 60.335560,395.861115 84.631592,395.929596 
	C155.111740,396.128296 225.593048,395.906372 296.073273,396.089294 
	C308.263275,396.120941 319.538116,393.954681 329.719330,387.032837 
	C343.870087,377.412201 351.821014,364.128906 352.923462,347.048065 
	C353.383972,339.913086 352.914520,332.721558 353.084534,325.560913 
	C353.112701,324.374542 354.257111,323.214630 355.143738,322.679596 
	C357.096008,324.064178 359.048309,325.448792 361.430573,326.990936 
	C361.430573,326.990936 361.885590,327.042542 362.154175,327.692108 
z"/>
<path fill="#FFFEFE" opacity="1.000000" stroke="none" 
	d="
M425.885590,373.042542 
	C425.885590,373.042542 425.430573,372.990936 425.209839,372.554443 
	C424.154541,370.751129 423.625153,368.976776 422.434662,368.085388 
	C415.945312,363.226440 409.394897,358.432007 402.646118,353.945282 
	C400.021240,352.200165 396.822784,351.317871 393.885590,350.042542 
	C393.885590,350.042542 393.430573,349.990936 393.209839,349.554443 
	C392.154541,347.751160 391.625183,345.976746 390.434692,345.085327 
	C383.945343,340.226410 377.394897,335.431946 370.646118,330.945251 
	C368.021271,329.200134 364.822784,328.317841 361.885590,327.042542 
	C361.885590,327.042542 361.430573,326.990936 361.208313,326.544556 
	C360.464478,322.472229 357.700287,322.219421 354.885651,322.042511 
	C354.257111,323.214630 353.112701,324.374542 353.084534,325.560913 
	C352.914520,332.721558 353.383972,339.913086 352.923462,347.048065 
	C351.821014,364.128906 343.870087,377.412201 329.719330,387.032837 
	C319.538116,393.954681 308.263275,396.120941 296.073273,396.089294 
	C225.593048,395.906372 155.111740,396.128296 84.631592,395.929596 
	C60.335560,395.861115 39.758106,379.049072 34.049843,354.946289 
	C33.344337,351.967285 33.045475,348.824219 33.042526,345.756714 
	C32.985210,286.106415 32.679012,226.453247 33.203331,166.807526 
	C33.352905,149.792419 42.149986,136.512024 56.400013,126.922829 
	C66.654152,120.022560 77.891617,117.886711 90.068100,117.916313 
	C160.548386,118.087685 231.029953,117.828362 301.509674,118.093254 
	C326.101715,118.185669 346.293884,134.598160 351.697235,158.751480 
	C353.857574,168.408218 352.668427,178.814743 352.995880,188.880219 
	C353.026886,189.833466 353.000031,190.788589 353.000031,192.548172 
	C361.218109,186.769196 368.845978,181.494598 376.379395,176.088348 
	C390.300903,166.097794 404.164825,156.027054 418.057526,145.996307 
	C422.120819,143.062561 426.268921,140.241699 430.260376,137.213837 
	C447.640656,124.029518 474.752045,132.246902 480.948914,156.138474 
	C481.232697,157.232498 480.999420,158.461807 480.999359,159.628113 
	C480.996155,224.443420 480.992126,289.258728 480.563446,354.608948 
	C479.484833,356.053833 478.548340,356.872345 478.219604,357.887634 
	C473.476959,372.535461 463.800476,379.764130 448.730774,380.090393 
	C447.126556,380.125092 445.549438,381.411530 443.959747,382.117279 
	C443.521210,382.074402 443.082642,382.031525 442.258789,381.577698 
	C436.544189,378.458679 431.214905,375.750610 425.885590,373.042542 
M371.013092,307.983948 
	C371.013092,307.983948 371.058594,307.903290 371.099884,308.641602 
	C372.437866,309.413391 373.775848,310.185150 375.569305,311.009003 
	C375.569305,311.009003 375.999847,311.166565 376.119080,311.814697 
	C379.005615,314.505249 381.660431,317.512177 384.821869,319.827332 
	C394.502106,326.916107 404.395081,333.713684 414.170746,340.673096 
	C423.289795,347.164978 432.322357,353.779785 441.513092,360.167694 
	C442.642883,360.952942 444.514069,360.671600 446.854950,360.991486 
	C452.928253,361.274200 459.139679,356.835510 459.111267,348.432007 
	C458.904022,287.133606 458.971405,225.834137 459.056244,164.535156 
	C459.062683,159.900146 457.174957,157.131912 453.356506,154.622925 
	C449.130585,151.846176 446.031708,153.664841 442.755432,155.794373 
	C439.375366,157.991379 436.081451,160.327316 432.818298,162.696747 
	C407.180389,181.312851 381.611938,200.025848 355.840942,218.455673 
	C353.545837,220.097000 352.959900,221.469452 352.967163,223.925293 
	C353.036316,247.245163 353.028137,270.565247 353.091492,294.625854 
	C354.432312,295.402863 355.773102,296.179871 357.740082,296.998627 
	C358.493622,297.610413 359.247192,298.222198 360.030182,299.701385 
	C361.299896,300.306854 362.569580,300.912292 364.354950,301.915253 
	C365.584045,303.238556 366.813110,304.561829 368.119476,306.605682 
	C369.110962,307.050079 370.102478,307.494446 371.013092,307.983948 
M55.000366,180.507050 
	C55.000359,234.156693 55.102486,287.806641 54.945091,341.455811 
	C54.889816,360.294830 69.535866,373.915192 87.516808,373.947968 
	C157.494583,374.075592 227.472733,374.013824 297.450684,373.955933 
	C300.682556,373.953247 304.056946,373.789337 307.121155,372.879395 
	C321.766693,368.530151 330.995575,357.085083 330.997223,341.988647 
	C331.003448,285.006561 331.146637,228.023880 330.912109,171.042770 
	C330.839722,153.453781 317.593170,140.379990 300.478516,140.242569 
	C228.839005,139.667419 157.191284,139.828705 85.549103,140.203247 
	C75.914436,140.253616 67.461288,144.695770 61.201405,153.066315 
	C55.117016,161.202209 54.753426,170.162308 55.000366,180.507050 
z"/>
<path fill="#FFFEFE" opacity="1.000000" stroke="none" 
	d="
M444.172852,382.491028 
	C445.549438,381.411530 447.126556,380.125092 448.730774,380.090393 
	C463.800476,379.764130 473.476959,372.535461 478.219604,357.887634 
	C478.548340,356.872345 479.484833,356.053833 480.486023,355.071899 
	C480.211609,367.041321 470.270721,378.924225 457.477478,381.884369 
	C453.263611,382.859436 448.758118,382.573914 444.172852,382.491028 
z"/>
<path fill="#FFFEFE" opacity="1.000000" stroke="none" 
	d="
M362.019897,327.367310 
	C364.822784,328.317841 368.021271,329.200134 370.646118,330.945251 
	C377.394897,335.431946 383.945343,340.226410 390.434692,345.085327 
	C391.625183,345.976746 392.154541,347.751160 392.994812,349.475708 
	C382.718445,342.452972 372.436310,335.072540 362.019897,327.367310 
z"/>
<path fill="#FFFEFE" opacity="1.000000" stroke="none" 
	d="
M394.019897,350.367310 
	C396.822784,351.317871 400.021240,352.200165 402.646118,353.945282 
	C409.394897,358.432007 415.945312,363.226440 422.434662,368.085388 
	C423.625153,368.976776 424.154541,370.751129 424.994812,372.475708 
	C414.718445,365.452972 404.436310,358.072540 394.019897,350.367310 
z"/>
<path fill="#FFFEFE" opacity="1.000000" stroke="none" 
	d="
M426.020264,373.367798 
	C431.214905,375.750610 436.544189,378.458679 441.936768,381.500061 
	C435.226990,382.022797 431.183746,376.898712 426.020264,373.367798 
z"/>
<path fill="#FFFEFE" opacity="1.000000" stroke="none" 
	d="
M355.014709,322.361053 
	C357.700287,322.219421 360.464478,322.472229 360.993347,326.465790 
	C359.048309,325.448792 357.096008,324.064178 355.014709,322.361053 
z"/>
<path fill="#000000" opacity="1.000000" stroke="none" 
	d="
M55.000366,180.009094 
	C54.753426,170.162308 55.117016,161.202209 61.201405,153.066315 
	C67.461288,144.695770 75.914436,140.253616 85.549103,140.203247 
	C157.191284,139.828705 228.839005,139.667419 300.478516,140.242569 
	C317.593170,140.379990 330.839722,153.453781 330.912109,171.042770 
	C331.146637,228.023880 331.003448,285.006561 330.997223,341.988647 
	C330.995575,357.085083 321.766693,368.530151 307.121155,372.879395 
	C304.056946,373.789337 300.682556,373.953247 297.450684,373.955933 
	C227.472733,374.013824 157.494583,374.075592 87.516808,373.947968 
	C69.535866,373.915192 54.889816,360.294830 54.945091,341.455811 
	C55.102486,287.806641 55.000359,234.156693 55.000366,180.009094 
z"/>
<path fill="#000000" opacity="1.000000" stroke="none" 
	d="
M375.999847,311.166565 
	C375.999847,311.166565 375.569305,311.009003 375.216797,310.669495 
	C373.595734,309.521118 372.327148,308.712219 371.058594,307.903290 
	C371.058594,307.903290 371.013092,307.983948 370.934357,307.651764 
	C369.917816,306.841431 368.980011,306.363281 368.042206,305.885132 
	C366.813110,304.561829 365.584045,303.238556 363.885925,301.437195 
	C362.278168,300.250763 361.139465,299.542389 360.000732,298.833984 
	C359.247192,298.222198 358.493622,297.610413 357.301575,296.663513 
	C355.589447,295.514038 354.315857,294.699677 353.042236,293.885284 
	C353.028137,270.565247 353.036316,247.245163 352.967163,223.925293 
	C352.959900,221.469452 353.545837,220.097000 355.840942,218.455673 
	C381.611938,200.025848 407.180389,181.312851 432.818298,162.696747 
	C436.081451,160.327316 439.375366,157.991379 442.755432,155.794373 
	C446.031708,153.664841 449.130585,151.846176 453.356506,154.622925 
	C457.174957,157.131912 459.062683,159.900146 459.056244,164.535156 
	C458.971405,225.834137 458.904022,287.133606 459.111267,348.432007 
	C459.139679,356.835510 452.928253,361.274200 446.320892,360.616852 
	C443.834717,358.825745 441.884216,357.407074 439.930267,355.993134 
	C423.723755,344.265869 407.567444,332.468140 391.278748,320.856140 
	C386.375244,317.360474 381.103119,314.381958 375.999847,311.166565 
z"/>
<path fill="#FFFEFE" opacity="1.000000" stroke="none" 
	d="
M376.059448,311.490631 
	C381.103119,314.381958 386.375244,317.360474 391.278748,320.856140 
	C407.567444,332.468140 423.723755,344.265869 439.930267,355.993134 
	C441.884216,357.407074 443.834717,358.825745 445.914246,360.563354 
	C444.514069,360.671600 442.642883,360.952942 441.513092,360.167694 
	C432.322357,353.779785 423.289795,347.164978 414.170746,340.673096 
	C404.395081,333.713684 394.502106,326.916107 384.821869,319.827332 
	C381.660431,317.512177 379.005615,314.505249 376.059448,311.490631 
z"/>
<path fill="#FFFEFE" opacity="1.000000" stroke="none" 
	d="
M353.066864,294.255554 
	C354.315857,294.699677 355.589447,295.514038 356.988495,296.642639 
	C355.773102,296.179871 354.432312,295.402863 353.066864,294.255554 
z"/>
<path fill="#FFFEFE" opacity="1.000000" stroke="none" 
	d="
M360.015442,299.267700 
	C361.139465,299.542389 362.278168,300.250763 363.628113,301.238464 
	C362.569580,300.912292 361.299896,300.306854 360.015442,299.267700 
z"/>
<path fill="#FFFEFE" opacity="1.000000" stroke="none" 
	d="
M371.079224,308.272461 
	C372.327148,308.712219 373.595734,309.521118 374.989075,310.643463 
	C373.775848,310.185150 372.437866,309.413391 371.079224,308.272461 
z"/>
<path fill="#FFFEFE" opacity="1.000000" stroke="none" 
	d="
M368.080841,306.245422 
	C368.980011,306.363281 369.917816,306.841431 370.974792,307.629211 
	C370.102478,307.494446 369.110962,307.050079 368.080841,306.245422 
z"/>
</svg>